{"glyphs":{":":{"x_min":0,"x_max":240,"ha":240,"o":"m 87 67 b 87 26 120 -7 161 -7 b 202 -7 236 26 236 67 b 236 108 202 142 161 142 b 120 142 87 108 87 67 z m 87 465 b 87 424 120 391 161 391 b 202 391 236 424 236 465 b 236 506 202 540 161 540 b 120 540 87 506 87 465 z"},"$":{"x_min":0,"x_max":632,"ha":632,"o":"m 293 720 l 293 699 b 168 689 83 615 83 508 b 83 395 151 340 297 302 l 297 105 b 242 115 196 138 149 172 b 140 179 128 183 116 183 b 85 183 61 159 61 128 b 61 107 71 91 88 80 b 149 37 218 10 293 2 l 293 -60 b 293 -84 313 -103 337 -103 b 361 -103 380 -84 380 -60 l 380 0 b 507 12 593 85 593 195 b 593 302 528 363 376 401 l 376 593 b 410 585 444 570 479 549 b 489 543 499 540 509 540 b 540 540 565 564 565 595 b 565 619 551 634 535 643 b 489 672 439 691 380 698 l 380 720 b 380 744 361 763 337 763 b 313 763 293 744 293 720 z m 475 188 b 475 140 440 108 376 101 l 376 283 b 453 259 475 232 475 188 z m 201 515 b 201 559 233 593 297 599 l 297 422 b 220 447 201 473 201 515 z"},"?":{"x_min":0,"x_max":534,"ha":534,"o":"m 232 116 b 206 116 183 94 183 67 l 183 49 b 183 21 206 0 232 0 b 260 0 281 21 281 49 l 281 67 b 281 94 260 116 232 116 z m 443 490 b 443 606 348 700 232 700 b 155 700 87 658 51 596 b 37 572 45 543 68 529 b 92 515 122 523 136 547 b 155 580 191 602 232 602 b 295 602 346 553 346 490 b 346 428 295 378 232 378 b 206 378 183 355 183 329 b 183 328 183 328 184 327 b 184 326 183 326 183 325 l 183 221 b 183 193 206 172 232 172 b 260 172 281 193 281 221 l 281 286 b 374 308 443 391 443 490 z"},"<":{"x_min":0,"x_max":620,"ha":620,"o":"m 213 347 l 450 586 b 475 611 475 651 450 676 b 426 700 385 700 360 676 l 79 391 b 76 389 74 386 73 384 b 71 384 71 382 71 382 b 69 380 68 376 66 373 b 66 372 65 372 65 371 b 64 368 64 366 63 363 b 63 362 61 361 61 359 b 61 357 61 354 61 352 b 61 351 60 348 60 347 b 60 344 61 343 61 341 b 61 339 61 337 61 334 b 61 333 63 332 63 329 b 64 328 64 325 65 323 b 65 322 66 320 68 319 b 69 316 69 314 71 311 b 71 311 73 310 74 309 b 75 306 76 304 79 303 l 360 18 b 373 6 389 0 406 0 b 422 0 437 6 450 18 b 475 43 475 82 450 108 l 213 347 z"},"'":{"x_min":0,"x_max":230,"ha":230,"o":"m 69 433 b 68 410 83 395 103 395 b 122 395 133 407 140 426 l 213 648 b 215 656 217 664 217 670 b 217 691 202 703 183 703 l 144 703 b 111 703 89 679 87 647 z"},"=":{"x_min":0,"x_max":620,"ha":620,"o":"m 115 259 l 115 259 l 301 259 l 301 259 b 321 259 336 275 336 295 l 336 295 b 336 315 321 331 301 331 l 115 331 l 115 331 b 95 331 79 315 79 295 l 79 295 b 79 275 95 259 115 259 z m 115 372 l 115 372 l 301 372 l 301 372 b 321 372 336 387 336 407 l 336 407 b 336 426 321 442 301 442 l 115 442 l 115 442 b 95 442 79 426 79 407 l 79 407 b 79 387 95 372 115 372 z"},"a":{"x_min":0,"x_max":619,"ha":619,"o":"m 516 446 b 516 476 492 500 463 500 b 437 500 417 481 411 456 b 373 483 328 500 278 500 b 210 500 151 471 108 425 b 65 380 40 318 40 249 b 40 181 65 119 108 73 b 151 28 210 0 278 0 b 278 0 278 0 278 0 b 328 0 373 16 411 43 b 417 19 437 0 463 0 b 492 0 516 24 516 53 l 516 249 b 516 249 516 249 516 249 b 516 249 516 249 516 249 l 516 446 z m 371 146 b 347 121 313 107 278 107 b 242 107 208 121 185 146 b 161 172 147 208 147 249 b 147 291 161 327 185 352 b 208 379 242 393 278 393 b 313 393 347 379 371 352 b 395 327 410 291 410 249 b 410 208 395 172 371 146 z"},"L":{"x_min":0,"x_max":563,"ha":563,"o":"m 159 0 b 159 0 159 0 160 0 b 160 0 160 0 162 0 l 486 0 b 515 0 541 25 541 55 b 541 86 515 111 486 111 l 215 111 l 215 645 b 215 675 190 700 159 700 b 128 700 104 675 104 645 l 104 55 b 104 25 128 0 159 0 z"},"3":{"x_min":0,"x_max":610,"ha":610,"o":"m 374 474 l 500 604 b 504 608 507 613 510 618 b 514 626 517 635 517 645 b 517 676 492 701 460 701 l 165 701 b 134 701 109 676 109 645 b 109 613 134 588 165 588 l 327 588 l 225 484 b 204 461 204 426 227 404 b 227 403 227 403 228 403 b 238 391 253 384 269 385 b 304 384 338 372 364 345 b 391 319 404 285 404 250 b 404 215 391 181 364 154 b 337 128 303 115 268 115 b 233 115 199 128 173 154 b 151 176 115 176 93 154 b 71 132 71 96 93 74 b 141 26 205 1 268 1 b 268 1 268 1 268 1 b 332 1 396 26 444 74 b 493 123 517 187 517 250 b 517 313 493 377 444 425 b 424 446 400 462 374 474 z"},";":{"x_min":0,"x_max":240,"ha":240,"o":"m 96 457 l 96 455 b 96 407 133 370 183 370 b 233 370 270 407 270 455 l 270 457 b 270 505 233 542 183 542 b 133 542 96 505 96 457 z m 59 -128 b 59 -146 70 -162 97 -162 b 134 -162 179 -144 209 -114 b 246 -77 268 -23 268 50 l 268 54 b 268 123 235 166 179 166 b 129 166 96 131 96 84 l 96 82 b 96 39 131 9 166 0 b 168 -48 140 -83 89 -95 b 72 -99 59 -110 59 -128 z"},"J":{"x_min":0,"x_max":594,"ha":594,"o":"m 87 241 b 59 233 42 202 52 172 b 84 72 178 0 288 0 b 425 0 537 111 537 248 l 537 645 b 537 676 512 700 482 700 b 451 700 426 676 426 645 l 426 248 b 426 173 364 111 288 111 b 227 111 175 151 157 206 b 148 235 117 251 87 241 z"},"V":{"x_min":0,"x_max":750,"ha":750,"o":"m 333 10 b 336 8 340 5 342 4 b 343 4 343 4 343 4 b 343 4 344 4 344 3 b 346 3 350 2 352 1 b 353 1 354 1 354 1 b 357 0 361 0 364 0 b 367 0 370 0 374 1 b 375 1 376 1 376 1 b 379 2 381 3 384 3 b 385 4 385 4 386 4 b 386 4 386 4 386 4 b 389 5 392 8 394 9 b 396 10 396 10 396 10 b 398 12 400 13 402 15 b 403 16 403 16 404 18 b 405 20 408 22 409 24 b 410 24 410 24 410 25 b 412 27 413 31 414 33 l 661 617 b 672 644 659 677 631 688 b 604 700 571 687 559 659 l 364 196 l 169 659 b 157 687 125 700 98 688 b 69 677 56 644 68 617 l 313 33 b 315 31 317 27 318 25 b 318 24 319 24 319 24 b 320 22 322 20 324 18 b 324 16 325 16 325 15 b 328 13 330 12 332 10 b 333 10 333 10 333 10 z"},"\"":{"x_min":0,"x_max":410,"ha":410,"o":"m 289 433 b 287 410 303 395 322 395 b 341 395 351 407 358 426 l 431 648 b 433 656 435 664 435 670 b 435 691 421 703 403 703 l 363 703 b 330 703 308 679 306 647 z m 69 433 b 68 410 83 395 103 395 b 122 395 132 407 139 426 l 212 648 b 214 656 216 664 216 670 b 216 691 202 703 183 703 l 144 703 b 111 703 89 679 87 647 z"},"7":{"x_min":0,"x_max":587,"ha":587,"o":"m 516 634 b 517 641 517 649 516 656 b 515 658 515 659 514 661 b 514 662 513 665 513 666 b 511 668 510 669 509 671 b 509 672 508 675 507 676 b 506 677 505 678 504 680 b 503 681 501 682 500 684 b 499 686 498 687 496 688 b 495 689 494 690 493 691 b 486 694 479 698 472 699 b 468 700 465 700 462 700 b 462 700 462 700 462 700 l 462 700 b 462 700 462 700 462 700 l 119 700 b 89 700 64 676 64 645 b 64 615 89 589 119 589 l 377 589 l 161 76 b 150 49 163 17 191 4 b 198 1 206 0 212 0 b 235 0 255 12 263 33 l 513 624 b 514 627 515 630 516 634 z"},"S":{"x_min":0,"x_max":667,"ha":667,"o":"m 90 101 l 90 101 b 147 56 238 2 346 1 l 346 1 b 417 1 482 22 531 58 l 531 58 b 581 94 617 149 617 213 l 617 213 b 617 244 608 274 593 298 l 593 298 b 570 335 534 361 493 381 l 493 381 b 453 400 406 413 355 423 l 355 423 l 353 423 l 353 423 b 299 433 254 449 228 467 l 228 467 b 215 476 206 485 201 493 l 201 493 b 196 501 194 509 194 521 l 194 521 b 194 542 205 564 232 584 l 232 584 b 259 604 299 618 344 618 l 344 618 b 405 618 454 588 505 554 l 505 554 b 529 538 561 545 576 569 l 576 569 b 592 592 585 624 562 640 l 562 640 b 511 673 440 720 344 720 l 344 720 b 279 720 218 701 171 667 l 171 667 b 125 633 91 581 91 521 l 91 521 b 91 491 99 463 114 439 l 114 439 b 136 404 169 379 207 361 l 207 361 b 245 343 289 331 336 322 l 336 322 l 338 322 l 338 322 b 397 311 446 294 475 275 l 475 275 b 490 265 499 255 505 245 l 505 245 b 511 235 514 226 514 213 l 514 213 b 514 188 501 163 471 141 l 471 141 b 441 119 396 104 346 104 l 346 104 b 275 103 199 145 155 181 l 155 181 b 133 199 100 196 82 174 l 82 174 b 65 152 68 119 90 101 z"},"}":{"x_min":0,"x_max":480,"ha":480,"o":"m 108 709 b 77 716 53 697 53 668 b 53 644 69 631 82 627 b 178 597 192 566 192 498 b 192 478 190 445 190 424 b 190 346 227 309 294 287 b 228 266 190 228 190 150 b 190 129 192 96 192 76 b 192 8 178 -23 82 -53 b 69 -57 53 -70 53 -94 b 53 -123 77 -142 108 -135 b 263 -101 304 -39 304 59 b 304 74 302 114 302 131 b 302 204 329 237 397 239 b 428 241 447 260 447 287 b 447 314 428 333 397 335 b 329 338 302 370 302 444 b 302 461 304 501 304 516 b 304 613 263 675 108 709 z"},"Z":{"x_min":0,"x_max":667,"ha":667,"o":"m 603 614 b 604 615 605 617 606 619 b 607 620 607 621 608 622 b 609 625 609 626 610 628 b 610 630 612 631 612 634 b 612 635 612 636 613 638 b 613 640 613 642 613 645 b 613 645 613 645 613 645 b 613 647 613 648 613 649 b 613 651 613 652 612 655 b 612 657 612 658 610 660 b 610 661 609 663 609 666 b 608 667 607 669 607 670 b 606 671 605 673 604 675 b 603 677 602 678 600 679 b 599 680 598 682 597 683 b 596 684 595 686 593 687 b 592 688 592 689 590 690 b 589 690 589 690 589 690 b 587 691 586 692 584 693 b 583 694 582 696 579 696 b 578 697 576 697 575 698 b 573 698 572 699 569 699 b 568 699 566 700 565 700 b 563 700 561 700 558 700 b 558 700 557 700 557 700 l 126 700 b 95 700 71 676 71 645 b 71 615 95 589 126 589 l 449 589 l 82 87 b 81 87 81 87 81 87 b 80 85 79 83 78 82 b 78 81 77 79 75 78 b 75 76 74 74 74 73 b 73 71 73 69 72 68 b 72 65 72 64 72 63 b 71 61 71 59 71 56 b 71 55 71 55 71 55 b 71 54 71 53 71 52 b 71 50 72 48 72 45 b 72 43 73 42 73 41 b 74 39 74 37 75 35 b 75 33 77 32 78 30 b 78 29 79 28 80 25 b 81 24 82 22 83 21 b 84 20 85 19 87 18 b 88 16 90 14 91 13 b 92 12 93 11 94 11 b 94 10 94 10 94 10 b 95 9 96 9 98 8 b 100 7 102 6 103 6 b 104 4 105 4 106 3 b 109 3 111 2 113 2 b 114 1 115 1 116 1 b 120 0 123 0 126 0 b 126 0 126 0 126 0 b 126 0 126 0 126 0 l 557 0 b 588 0 613 24 613 55 b 613 86 588 111 557 111 l 235 111 l 603 612 b 603 612 603 612 603 614 z"},"x":{"x_min":0,"x_max":570,"ha":570,"o":"m 444 483 b 419 500 387 495 368 472 l 268 338 l 168 472 b 150 495 119 500 95 483 b 72 467 67 433 84 412 l 204 248 l 84 83 b 67 61 72 26 95 11 b 104 4 116 0 127 0 b 143 0 157 9 168 22 l 268 159 l 368 22 b 381 9 396 0 412 0 b 423 0 434 4 444 11 b 465 26 471 61 454 83 l 335 248 l 454 412 b 471 433 465 467 444 483 z"},")":{"x_min":0,"x_max":430,"ha":430,"o":"m 242 -55 b 274 -30 298 4 315 41 l 315 41 b 349 116 362 207 362 306 l 362 306 b 362 380 355 450 337 512 l 337 512 b 319 573 291 628 242 666 l 242 666 b 209 692 167 706 123 706 l 123 706 b 88 706 60 677 60 643 l 60 643 b 60 608 88 579 123 579 l 123 579 b 142 579 153 575 165 566 l 165 566 b 177 557 189 541 200 517 l 200 517 b 223 470 236 393 235 306 l 235 306 b 236 240 229 181 215 135 l 215 135 b 202 89 183 59 165 46 l 165 46 b 153 37 142 33 123 32 l 123 32 l 123 32 b 88 32 60 4 60 -31 l 60 -31 b 60 -66 88 -94 123 -94 l 123 -94 b 124 -94 124 -94 125 -94 l 125 -94 b 168 -94 210 -80 242 -55 z"},"&":{"x_min":0,"x_max":696,"ha":696,"o":"m 578 405 b 572 435 542 454 512 447 b 482 440 463 411 471 381 b 472 374 472 369 472 366 b 472 360 472 359 472 359 b 471 358 471 358 469 357 b 465 356 462 356 458 356 b 457 356 455 356 454 356 b 443 357 432 357 421 357 b 351 357 299 339 265 306 b 231 274 223 231 224 205 b 224 182 228 166 230 163 b 237 138 258 123 283 123 b 288 123 294 124 298 125 b 328 134 344 165 336 194 b 336 195 335 199 335 205 b 335 214 336 220 343 227 b 348 233 367 245 419 246 b 419 244 419 241 419 240 b 419 168 361 111 289 111 b 217 111 160 168 160 240 b 160 291 190 336 233 357 b 235 358 236 359 238 360 b 240 361 240 361 241 362 b 242 362 243 363 244 364 b 248 368 252 371 255 375 b 255 377 256 378 256 379 b 257 379 257 379 257 379 b 272 404 265 435 242 453 b 223 466 210 488 210 514 b 210 556 244 589 285 589 b 327 589 360 556 360 514 b 360 483 386 459 416 459 b 447 459 471 483 471 514 b 471 617 388 700 285 700 b 183 700 99 617 99 514 b 99 478 109 445 127 416 b 79 373 49 310 49 240 b 49 107 156 0 289 0 b 422 0 530 107 530 240 b 530 248 530 256 529 264 b 532 266 535 268 540 270 b 566 290 584 328 583 366 b 583 379 582 392 578 405 z"},"_":{"x_min":0,"x_max":600,"ha":600,"o":"m 23 -160 l 627 -160 b 653 -160 674 -139 674 -113 b 674 -87 653 -66 627 -66 l 23 -66 b -3 -66 -24 -87 -24 -113 b -24 -139 -3 -160 23 -160 z"},"v":{"x_min":0,"x_max":582,"ha":582,"o":"m 459 488 b 433 500 403 486 392 459 l 276 187 l 161 459 b 149 486 118 500 94 488 b 66 476 53 447 65 420 l 227 32 b 228 29 229 26 231 25 b 231 24 231 24 232 24 b 234 22 236 19 237 17 b 238 16 238 16 239 16 b 241 13 243 12 245 10 b 245 10 246 10 246 9 b 250 7 252 5 255 4 b 255 4 255 4 257 4 b 257 4 257 4 257 3 b 260 3 262 2 265 1 b 266 1 266 1 267 1 b 271 0 274 0 276 0 b 276 0 276 0 276 0 b 279 0 282 0 286 1 b 287 1 287 1 288 1 b 290 2 293 3 296 3 b 296 4 296 4 296 4 b 298 4 298 4 298 4 b 301 5 303 7 305 9 b 305 10 306 10 306 10 b 308 12 310 13 312 16 b 312 16 313 16 313 17 b 315 19 317 22 319 24 b 319 24 320 24 320 25 b 321 26 323 29 324 32 l 488 420 b 500 447 487 476 459 488 z"},"O":{"x_min":0,"x_max":850,"ha":850,"o":"m 417 720 b 321 720 233 679 172 613 b 110 547 73 459 73 360 b 73 261 110 172 172 107 b 233 42 321 0 417 0 b 417 0 417 0 417 0 b 509 0 597 42 656 107 b 718 172 757 261 757 360 b 757 459 718 547 656 613 b 597 679 509 720 417 720 z m 575 186 b 533 141 477 114 417 114 b 353 114 297 141 255 186 b 213 229 187 292 187 360 b 187 428 213 491 255 535 b 297 580 353 606 417 606 b 477 606 533 580 575 535 b 616 491 643 428 643 360 b 643 292 616 229 575 186 z"},"(":{"x_min":0,"x_max":430,"ha":430,"o":"m 191 -55 l 191 -55 b 223 -80 265 -94 308 -94 l 308 -94 b 309 -94 309 -94 310 -94 l 310 -94 b 345 -94 373 -66 373 -31 l 373 -31 b 373 4 345 32 310 32 l 310 32 l 310 32 b 291 33 280 37 268 46 l 268 46 b 250 59 231 89 218 135 l 218 135 b 204 181 197 240 198 306 l 198 306 b 197 393 210 470 233 517 l 233 517 b 244 541 256 557 268 566 l 268 566 b 280 575 291 579 310 579 l 310 579 b 345 579 373 608 373 643 l 373 643 b 373 677 345 706 310 706 l 310 706 b 266 706 224 692 191 666 l 191 666 b 142 628 114 573 96 512 l 96 512 b 78 450 71 380 71 306 l 71 306 b 71 207 84 116 118 41 l 118 41 b 135 4 159 -30 191 -55 z"},"C":{"x_min":0,"x_max":771,"ha":771,"o":"m 440 0 b 528 0 608 29 671 78 b 695 97 699 133 681 158 b 661 182 624 186 601 169 b 556 133 502 114 440 114 b 371 114 307 142 260 186 b 215 230 187 292 187 360 b 187 428 215 488 260 534 b 307 578 371 606 440 606 b 502 606 557 587 601 551 b 624 533 661 537 681 562 b 699 587 695 622 671 642 b 608 691 528 720 440 720 b 240 719 74 558 73 360 b 74 161 240 0 440 0 z"},"W":{"x_min":0,"x_max":1102,"ha":1102,"o":"m 998 688 b 969 700 937 687 925 659 l 730 196 l 601 503 b 591 525 570 537 549 537 b 527 537 506 525 497 503 l 368 196 l 172 659 b 161 687 128 700 101 688 b 72 677 60 644 71 617 l 317 34 b 319 31 320 27 322 25 b 322 25 322 24 322 24 b 324 22 325 20 327 18 b 328 16 328 16 329 15 b 332 14 333 12 336 10 b 336 10 336 10 337 10 b 339 8 343 5 346 4 b 346 4 346 4 346 4 b 347 4 347 4 348 3 b 350 3 352 2 355 1 b 356 1 357 1 358 1 b 361 0 365 0 368 0 b 368 0 368 0 368 0 b 368 0 368 0 368 0 b 368 0 368 0 368 0 b 371 0 374 0 377 1 b 378 1 379 1 380 1 b 382 2 384 3 388 3 b 388 4 389 4 389 4 b 389 4 389 4 390 4 b 392 5 395 8 398 10 b 398 10 398 10 400 10 b 402 12 404 14 406 15 b 406 16 407 16 407 18 b 409 20 411 22 413 24 b 413 24 413 25 414 25 b 415 27 417 31 418 34 l 549 344 l 680 34 b 681 31 682 27 684 25 b 684 25 684 24 686 24 b 687 22 689 20 690 18 b 691 16 691 16 692 15 b 694 14 696 12 699 10 b 699 10 699 10 700 10 b 702 8 705 5 709 4 b 709 4 709 4 709 4 b 710 4 710 4 711 3 b 713 3 715 2 718 1 b 718 1 719 1 721 1 b 724 0 727 0 730 0 b 734 0 737 0 740 1 b 740 1 741 1 742 1 b 745 2 748 3 750 3 b 750 4 751 4 751 4 b 751 4 752 4 752 4 b 756 5 758 8 761 10 b 761 10 762 10 762 10 b 764 12 767 14 769 15 b 769 16 770 16 770 18 b 772 20 774 22 775 24 b 775 24 776 25 776 25 b 778 27 780 31 781 34 l 1026 617 b 1038 644 1025 677 998 688 z"},"A":{"x_min":0,"x_max":646,"ha":646,"o":"m 510 35 b 518 13 539 0 561 0 b 568 0 575 1 580 3 b 609 14 623 46 613 75 l 392 664 b 383 686 362 700 339 699 b 317 700 295 686 286 664 l 65 75 b 55 46 69 14 98 3 b 104 1 110 0 117 0 b 139 0 160 13 169 35 l 218 165 l 461 165 l 510 35 z m 258 275 l 339 490 l 420 275 l 258 275 z"},"f":{"x_min":0,"x_max":362,"ha":362,"o":"m 266 584 b 267 585 268 586 272 587 b 276 589 285 590 298 590 b 328 590 353 615 353 646 b 353 676 328 701 298 701 b 277 701 258 699 238 693 b 208 684 180 661 166 631 b 151 602 147 570 147 533 l 147 519 l 121 519 b 90 519 65 495 65 464 b 65 434 90 409 121 409 l 147 409 l 147 56 b 147 26 171 1 202 1 b 233 1 257 26 257 56 l 257 409 l 287 409 b 317 409 342 434 342 464 b 342 495 317 519 287 519 l 257 519 l 257 533 b 257 570 265 584 266 584 z"},"Q":{"x_min":0,"x_max":844,"ha":844,"o":"m 821 -16 b 801 9 765 14 740 -6 b 699 -37 671 -44 642 -44 b 610 -44 572 -31 530 -8 l 553 1 b 595 21 633 48 664 80 b 728 148 766 240 766 341 b 766 441 728 532 664 599 b 603 668 514 710 416 710 b 318 710 230 668 166 599 b 105 532 66 441 66 341 b 66 240 105 148 166 80 b 199 49 237 23 277 4 l 274 2 b 246 -12 232 -45 247 -75 b 250 -85 256 -91 261 -98 b 262 -98 262 -98 263 -99 b 266 -100 268 -100 269 -101 b 284 -113 307 -115 327 -104 l 327 -104 b 331 -101 365 -87 398 -87 b 418 -87 439 -91 459 -102 b 513 -134 572 -162 642 -162 b 642 -162 645 -162 645 -162 b 698 -162 755 -141 810 -99 b 837 -77 841 -41 821 -16 z m 184 341 b 184 412 210 475 253 519 b 294 565 351 592 416 592 b 480 592 537 565 581 519 b 624 475 650 412 650 341 b 650 270 624 207 581 161 b 537 116 480 89 416 89 b 351 89 294 116 253 161 b 210 207 184 270 184 341 z"},"w":{"x_min":0,"x_max":861,"ha":861,"o":"m 707 489 b 682 500 650 488 640 459 l 522 190 l 451 357 b 443 377 424 389 402 389 b 381 389 362 377 353 357 l 283 190 l 165 459 b 154 488 123 500 99 489 b 71 477 58 447 70 420 l 234 32 b 236 30 237 27 239 24 b 239 23 239 23 240 23 b 241 21 243 19 244 17 b 246 16 246 16 246 16 b 249 14 251 12 252 11 b 252 10 252 10 253 10 b 255 7 259 5 262 4 b 262 4 262 4 262 4 b 263 4 263 4 264 3 b 266 3 268 2 270 1 b 272 1 272 1 273 1 b 276 0 279 0 283 0 b 286 0 289 0 293 1 b 293 1 293 1 295 1 b 296 2 299 3 301 3 b 301 4 302 4 302 4 b 302 4 304 4 304 4 b 307 5 309 7 313 10 b 313 10 313 10 313 10 b 315 12 317 14 319 16 b 319 16 320 16 320 17 b 322 19 324 21 326 23 b 326 23 326 24 326 24 b 328 27 330 30 331 32 l 402 205 l 475 32 b 476 30 477 27 479 24 b 479 23 480 23 480 23 b 481 21 483 19 485 17 b 485 16 487 16 487 16 b 489 14 490 12 493 11 b 493 10 493 10 493 10 b 496 7 499 5 502 4 b 502 4 502 4 503 4 b 503 4 503 4 504 3 b 507 3 509 2 511 1 b 512 1 512 1 513 1 b 516 0 519 0 522 0 b 522 0 522 0 522 0 l 522 0 l 522 0 b 522 0 522 0 522 0 b 526 0 529 0 532 1 b 533 1 533 1 534 1 b 537 2 540 3 542 3 b 542 4 543 4 543 4 b 543 4 543 4 543 4 b 547 5 549 7 552 9 b 552 10 553 10 553 11 b 555 12 557 14 559 16 b 559 16 560 16 561 17 b 563 19 565 21 566 23 b 566 23 567 23 567 24 b 569 27 570 30 571 32 l 736 420 b 748 447 734 477 707 489 z"},"-":{"x_min":0,"x_max":408,"ha":408,"o":"m 125 247 l 313 247 b 345 247 372 274 372 306 b 372 339 345 366 313 366 l 125 366 b 93 366 66 339 66 306 b 66 274 93 247 125 247 z"},"E":{"x_min":0,"x_max":593,"ha":593,"o":"m 159 0 b 159 0 160 1 160 1 b 160 1 160 0 162 0 l 486 0 b 515 0 541 25 541 55 b 541 86 515 111 486 111 l 215 111 l 215 295 l 448 295 b 478 295 503 320 503 351 b 503 380 478 406 448 406 l 215 406 l 215 589 l 486 589 b 515 589 541 614 541 645 b 541 676 515 700 486 700 l 162 700 b 160 700 160 700 160 700 b 160 700 159 700 159 700 b 128 700 104 676 104 645 l 104 55 b 104 25 128 0 159 0 z"},"s":{"x_min":0,"x_max":492,"ha":492,"o":"m 76 69 l 76 69 b 116 37 176 1 254 0 l 254 0 b 303 0 348 15 384 40 l 384 40 b 420 66 447 107 447 156 l 447 156 b 447 179 440 202 428 222 l 428 222 b 411 250 384 269 357 281 l 357 281 b 328 295 297 304 264 310 l 263 310 l 262 311 l 262 311 b 228 317 202 326 189 335 l 189 335 b 182 339 179 343 178 345 l 178 345 b 176 348 176 349 176 353 l 176 353 b 176 358 179 367 192 376 l 192 376 b 205 386 227 394 252 394 l 252 394 b 284 394 312 378 344 357 l 344 357 b 369 340 402 347 418 371 l 418 371 b 433 396 426 429 402 445 l 402 445 l 402 445 b 370 467 321 500 252 500 l 252 500 b 206 500 164 487 129 463 l 129 463 b 96 438 70 399 70 353 l 70 353 b 70 330 76 308 87 290 l 87 290 b 105 263 129 245 156 232 l 156 232 b 182 220 212 212 243 206 l 244 206 l 244 206 l 244 206 l 244 206 b 280 199 310 188 324 178 l 324 178 b 332 173 336 169 337 166 l 337 166 b 339 163 340 161 340 156 l 340 156 b 340 148 336 138 322 126 l 322 126 b 306 116 281 107 254 107 l 254 107 b 215 106 170 129 144 151 l 144 151 b 122 170 87 167 69 143 l 69 143 b 51 121 54 87 76 69 z"},">":{"x_min":0,"x_max":620,"ha":620,"o":"m 498 320 b 498 322 499 322 499 323 b 500 325 500 328 502 332 b 502 333 503 333 503 334 b 503 337 503 339 503 342 b 503 343 504 346 504 347 b 504 348 503 351 503 352 b 503 354 503 357 503 359 b 503 361 502 361 502 362 b 500 366 500 368 499 371 b 499 372 498 372 498 373 b 497 376 495 378 493 382 b 493 382 493 384 492 384 b 490 386 488 389 485 391 l 204 676 b 179 700 138 700 114 676 b 89 651 89 611 114 586 l 351 347 l 114 108 b 89 82 89 43 114 18 b 127 6 142 0 159 0 b 175 0 192 6 204 18 l 485 303 b 488 305 490 308 492 310 b 493 310 493 311 493 311 b 495 315 497 318 498 320 z"},"l":{"x_min":0,"x_max":249,"ha":249,"o":"m 100 645 l 100 55 b 100 25 125 0 155 0 b 186 0 211 25 211 55 l 211 645 b 211 675 186 700 155 700 b 125 700 100 675 100 645 z"},"8":{"x_min":0,"x_max":630,"ha":630,"o":"m 426 437 b 447 464 459 499 459 536 b 459 626 385 700 295 700 b 203 700 129 626 129 536 b 129 499 141 464 162 437 b 97 394 55 321 55 238 b 55 107 163 0 295 0 b 426 0 533 107 533 238 b 533 321 490 394 426 437 z m 295 591 b 325 591 350 566 350 536 b 350 505 325 479 295 479 b 263 479 238 505 238 536 b 238 566 263 591 295 591 z m 295 109 b 223 109 165 167 164 238 b 165 309 223 368 295 368 b 366 368 424 309 424 238 b 424 167 366 109 295 109 z"},"\\":{"x_min":0,"x_max":448,"ha":448,"o":"m 389 4 b 418 15 431 48 419 76 l 419 76 l 174 659 b 162 687 130 700 101 688 l 101 688 b 74 677 61 644 73 617 l 73 617 l 318 33 b 327 12 348 0 369 0 l 369 0 b 375 0 383 1 389 4 l 389 4 z"},"e":{"x_min":0,"x_max":609,"ha":609,"o":"m 302 0 b 373 0 432 21 481 66 b 504 87 494 117 481 131 b 468 147 427 150 406 128 b 381 109 338 100 302 103 b 267 106 227 124 206 148 b 188 165 177 191 172 214 l 490 214 b 518 214 539 230 542 254 b 543 256 543 261 543 263 b 543 263 543 263 543 263 b 543 263 543 263 543 263 b 543 265 543 267 543 268 b 535 403 432 500 302 500 b 165 500 59 386 58 250 b 59 114 165 1 302 0 z m 302 405 b 389 398 440 339 450 299 l 167 299 b 175 340 217 401 302 405 z"},"b":{"x_min":0,"x_max":660,"ha":660,"o":"m 93 54 b 93 25 117 0 147 0 b 174 0 195 19 200 43 b 238 17 286 0 336 0 b 471 0 579 114 579 249 b 579 386 471 500 336 500 b 287 500 239 484 202 458 l 202 646 b 202 675 178 700 147 700 b 117 700 93 675 93 646 l 93 250 b 93 250 93 250 93 249 b 93 249 93 249 93 249 l 93 54 z m 242 350 b 267 376 299 391 336 391 b 372 391 405 376 430 350 b 455 325 470 289 470 249 b 470 211 455 175 430 150 b 405 124 372 109 336 109 b 299 109 267 124 242 150 b 217 175 202 211 202 249 b 202 289 217 325 242 350 z"},"m":{"x_min":0,"x_max":951,"ha":951,"o":"m 615 393 b 670 393 716 347 716 290 l 716 53 b 716 24 741 0 770 0 b 799 0 823 24 823 53 l 823 290 b 823 406 730 500 615 500 b 552 500 495 474 458 431 b 420 474 364 500 301 500 b 263 500 226 489 194 470 b 186 489 167 500 146 500 b 117 500 93 477 93 446 l 93 291 b 93 291 93 291 93 290 l 93 53 b 93 27 112 7 136 1 b 139 1 142 0 146 0 b 167 0 187 14 196 32 b 196 32 196 32 196 32 b 196 34 196 36 196 37 b 198 39 198 41 199 43 b 199 43 199 45 199 46 b 199 48 200 51 200 53 l 200 53 l 200 290 b 200 347 246 393 301 393 b 357 393 403 348 404 293 b 404 292 404 291 404 290 l 404 53 b 404 24 430 0 458 0 b 458 0 458 0 458 0 b 458 0 458 0 458 0 b 487 0 511 24 511 53 l 511 290 b 511 291 511 292 511 293 b 513 348 558 393 615 393 z"},"#":{"x_min":0,"x_max":700,"ha":700,"o":"m 125 56 b 120 22 144 -5 176 -5 b 206 -5 225 16 229 38 l 250 161 l 407 161 l 388 56 b 383 25 407 -5 440 -5 b 466 -5 488 13 492 38 l 513 161 l 588 161 b 617 161 640 185 640 213 b 640 242 617 265 588 265 l 531 265 l 561 439 l 625 439 b 653 439 677 463 677 491 b 677 520 653 543 625 543 l 579 543 l 596 644 b 601 675 577 705 545 705 b 518 705 496 688 492 662 l 472 543 l 315 543 l 333 644 b 337 675 314 705 281 705 b 255 705 233 688 229 662 l 209 543 l 133 543 b 105 543 81 519 81 491 b 81 463 105 439 133 439 l 191 439 l 161 265 l 97 265 b 68 265 45 241 45 213 b 45 184 68 161 97 161 l 143 161 z m 268 265 l 298 439 l 454 439 l 424 265 z"},",":{"x_min":0,"x_max":230,"ha":230,"o":"m 54 -117 b 54 -132 64 -145 85 -145 b 113 -145 152 -128 179 -102 b 210 -70 228 -24 228 44 l 228 55 b 228 109 201 143 156 143 b 115 143 88 114 88 76 l 88 68 b 88 32 116 8 145 0 b 147 -44 123 -75 77 -90 b 64 -93 54 -103 54 -117 z"},"n":{"x_min":0,"x_max":613,"ha":613,"o":"m 301 500 b 262 500 225 488 195 469 b 186 488 167 500 146 500 b 116 500 93 476 93 447 l 93 292 b 93 292 93 292 93 292 l 93 53 b 93 24 116 0 146 0 b 172 0 194 19 199 43 b 201 47 201 50 201 53 l 201 53 l 201 292 b 201 348 245 393 301 393 b 358 393 405 348 405 292 l 405 53 b 405 24 430 0 458 0 b 487 0 510 24 510 53 l 510 292 b 510 405 417 500 301 500 z"},"h":{"x_min":0,"x_max":613,"ha":613,"o":"m 204 281 b 205 340 252 388 311 389 b 371 388 419 340 419 281 l 419 55 b 419 24 443 0 474 0 b 505 0 529 24 529 55 l 529 281 b 529 401 432 500 311 500 b 272 500 236 488 204 471 l 204 645 b 204 676 179 700 148 700 b 118 700 93 676 93 645 l 93 55 b 93 50 94 45 95 41 b 102 18 123 0 148 0 b 179 0 204 24 204 55 l 204 281 z"},"z":{"x_min":0,"x_max":554,"ha":554,"o":"m 445 417 b 447 418 448 420 450 422 b 450 424 450 425 450 425 b 452 426 453 428 453 430 b 454 432 454 434 454 435 b 455 437 455 438 455 441 b 455 441 455 444 456 446 b 456 446 456 447 456 447 b 456 448 455 450 455 451 b 455 453 455 455 455 457 b 454 458 454 460 453 462 b 453 464 453 466 452 467 b 452 469 450 470 450 473 b 448 473 448 474 447 475 b 446 476 445 477 444 479 b 443 480 442 482 441 482 b 439 485 437 486 436 487 b 436 488 435 489 434 489 b 434 489 434 490 433 490 b 431 491 429 493 427 493 b 426 493 425 495 424 496 b 423 496 421 497 419 497 b 418 498 416 498 414 499 b 412 499 412 499 409 499 b 407 499 405 500 403 500 b 403 500 403 500 403 500 l 114 500 b 86 500 61 476 61 447 b 61 417 86 394 114 394 l 297 394 l 72 83 b 72 83 72 83 71 83 b 70 82 68 80 68 78 b 68 78 66 75 65 75 b 65 74 64 72 64 70 b 63 68 63 66 62 65 b 62 63 62 62 62 61 b 62 59 61 56 61 54 b 61 53 61 53 61 53 b 61 52 61 51 62 50 b 62 48 62 45 62 43 b 62 42 63 40 63 39 b 64 36 64 34 65 34 b 65 31 66 30 68 29 b 68 27 68 26 70 25 b 71 24 72 23 73 21 b 74 20 75 19 77 16 b 77 16 80 14 81 13 b 82 12 83 11 84 11 b 84 10 84 10 85 10 b 85 9 86 9 87 7 b 88 7 90 5 91 5 b 92 4 93 4 95 3 b 97 3 99 2 101 1 b 102 1 103 1 104 1 b 108 0 111 0 114 0 b 114 0 114 0 114 0 b 114 0 114 0 114 0 l 403 0 b 431 0 456 24 456 53 b 456 83 431 106 403 106 l 219 106 l 445 416 b 445 417 445 417 445 417 z"},"B":{"x_min":0,"x_max":594,"ha":594,"o":"m 159 0 b 160 0 160 1 162 1 b 162 1 162 0 163 0 l 340 0 b 458 0 554 96 554 215 b 554 291 513 358 453 396 b 477 428 491 467 491 510 b 491 615 406 700 301 700 l 163 700 b 162 700 162 700 162 700 b 160 700 160 700 159 700 b 129 700 104 676 104 645 l 104 55 b 104 25 129 0 159 0 z m 215 589 l 301 589 b 345 589 380 554 380 510 b 380 466 345 429 301 429 l 215 429 l 215 589 z m 215 318 l 340 318 b 397 317 443 272 443 215 b 443 157 397 112 340 111 l 215 111 l 215 318 z"},"K":{"x_min":0,"x_max":715,"ha":715,"o":"m 159 0 b 190 0 214 25 214 55 l 214 197 l 318 303 l 534 20 b 545 7 560 0 575 0 b 588 0 600 4 610 13 b 634 32 638 67 618 90 l 396 381 l 616 600 b 637 622 637 657 616 678 b 594 700 560 700 538 678 l 214 353 l 214 640 b 214 669 190 695 159 695 b 128 695 104 669 104 640 l 104 55 b 104 25 128 0 159 0 z"},"R":{"x_min":0,"x_max":625,"ha":625,"o":"m 532 117 b 530 127 527 146 528 176 b 528 218 515 255 495 284 b 485 299 473 311 460 321 b 508 361 538 419 538 485 b 538 604 443 700 324 700 l 146 700 b 146 700 146 700 146 700 b 145 700 145 700 145 700 b 114 700 90 676 90 645 l 90 55 b 90 25 114 0 145 0 b 176 0 201 25 201 55 l 201 272 l 319 272 b 328 270 354 262 375 248 b 387 240 399 230 405 219 b 412 208 416 195 417 176 b 417 121 424 85 438 56 b 446 42 457 29 470 21 b 484 12 499 10 509 10 b 510 10 510 10 510 10 b 520 10 528 12 532 13 b 561 23 577 54 567 83 b 561 100 548 112 532 117 z m 324 383 l 201 383 l 201 589 l 324 589 b 381 589 427 543 427 485 b 427 429 381 383 324 383 z"},"T":{"x_min":0,"x_max":648,"ha":648,"o":"m 587 645 b 587 676 562 700 532 700 l 105 700 b 74 700 50 676 50 645 b 50 615 74 589 105 589 l 263 589 l 263 55 b 263 24 288 0 318 0 b 349 0 373 24 373 55 l 373 589 l 532 589 b 562 589 587 615 587 645 z"},"P":{"x_min":0,"x_max":583,"ha":583,"o":"m 553 485 b 553 604 457 700 338 700 l 160 700 b 160 700 160 700 160 700 b 160 700 159 700 159 700 b 129 700 104 676 104 645 l 104 55 b 104 25 129 0 159 0 b 190 0 215 25 215 55 l 215 272 l 338 272 b 457 272 553 368 553 485 z m 215 589 l 338 589 b 396 589 441 543 442 485 b 441 429 396 383 338 383 l 215 383 l 215 589 z"},"|":{"x_min":0,"x_max":286,"ha":286,"o":"m 121 -85 b 121 -112 143 -133 169 -133 b 196 -133 218 -112 218 -85 l 218 755 b 218 782 196 803 169 803 b 143 803 121 782 121 755 z"},"t":{"x_min":0,"x_max":400,"ha":400,"o":"m 262 500 l 237 500 l 237 645 b 237 676 213 700 182 700 b 151 700 126 676 126 645 l 126 645 l 126 500 l 97 500 b 66 500 42 476 42 445 b 42 415 66 390 97 390 l 126 390 l 126 111 b 126 50 176 0 237 0 b 268 0 292 24 292 55 b 292 86 268 111 237 111 b 237 111 237 111 237 111 l 237 390 l 262 390 b 292 390 318 415 318 445 b 318 476 292 500 262 500 z"},"M":{"x_min":0,"x_max":844,"ha":844,"o":"m 650 700 b 650 700 650 700 650 700 b 650 700 650 700 650 700 b 649 700 649 700 649 700 b 631 700 615 692 604 677 l 405 401 l 206 677 b 196 692 178 700 162 700 b 160 700 160 700 159 700 b 129 700 104 675 104 645 l 104 55 b 104 25 129 0 159 0 b 190 0 215 25 215 55 l 215 476 l 358 276 b 369 261 386 253 404 253 b 404 253 405 253 405 253 b 405 253 406 253 406 253 b 424 253 440 261 451 276 l 595 476 l 595 55 b 595 25 619 0 650 0 b 680 0 706 25 706 55 l 706 645 b 706 675 680 699 650 700 z"},"g":{"x_min":0,"x_max":660,"ha":660,"o":"m 540 248 b 540 248 540 248 540 248 l 540 447 b 540 476 517 500 487 500 b 461 500 439 482 434 458 b 398 484 352 500 300 500 b 234 500 173 471 130 426 b 87 379 60 317 60 248 b 60 178 87 116 130 72 b 173 25 234 -4 300 -4 b 300 -4 300 -4 300 -4 b 349 -4 395 11 431 36 b 418 -25 365 -71 300 -71 b 279 -71 260 -66 243 -57 b 215 -45 184 -55 171 -82 b 157 -109 169 -142 195 -154 b 226 -170 263 -179 300 -179 b 433 -179 540 -70 540 61 l 540 247 b 540 247 540 248 540 248 z m 395 145 b 369 118 338 104 300 104 b 265 104 232 118 208 145 b 184 168 168 206 168 248 b 168 288 184 326 208 350 b 232 378 265 393 300 393 b 338 393 369 378 395 350 b 417 326 433 288 433 248 b 433 206 417 168 395 145 z"},"j":{"x_min":0,"x_max":249,"ha":249,"o":"m 106 569 b 136 569 160 595 160 624 l 160 644 b 160 676 136 699 106 699 b 76 699 51 676 51 644 l 51 624 b 51 595 76 569 106 569 z m 50 -177 b 110 -177 158 -128 158 -69 l 158 445 b 158 476 135 500 104 500 b 75 500 50 476 50 445 l 50 -69 b 50 -69 50 -69 50 -69 b 18 -69 -5 -93 -5 -122 b -5 -154 18 -177 50 -177 z"},"i":{"x_min":0,"x_max":281,"ha":281,"o":"m 148 499 b 118 499 94 476 94 444 l 94 54 b 94 24 118 0 148 0 b 179 0 202 24 202 54 l 202 444 b 202 476 179 499 148 499 z m 202 646 b 202 676 179 700 148 700 b 118 700 94 676 94 646 l 94 625 b 94 595 118 570 148 570 b 179 570 202 595 202 625 l 202 646 z"},"y":{"x_min":0,"x_max":588,"ha":588,"o":"m 416 500 b 386 500 364 477 364 447 l 364 211 b 364 153 318 109 261 109 b 204 109 157 153 157 211 l 157 447 b 157 477 135 500 104 500 b 77 500 52 477 52 447 l 52 211 b 52 96 146 1 261 1 b 294 1 328 9 356 25 b 340 -27 290 -65 231 -66 b 211 -66 192 -61 173 -52 b 149 -39 115 -50 102 -74 b 90 -102 100 -133 128 -145 b 158 -160 195 -170 231 -170 b 364 -170 470 -65 470 69 l 470 211 b 470 211 470 211 470 211 l 470 447 b 470 477 445 500 416 500 z"},"@":{"x_min":0,"x_max":980,"ha":980,"o":"m 402 700 b 209 700 53 543 53 351 b 53 157 209 1 402 0 b 432 0 461 4 489 11 b 519 19 536 49 529 79 b 522 108 491 126 462 118 b 443 114 423 112 402 112 b 271 112 164 218 164 351 b 164 482 271 589 402 589 b 535 589 641 482 641 351 b 641 311 632 274 616 242 b 615 240 609 232 603 226 b 600 223 598 222 596 220 l 596 339 b 596 341 596 342 596 343 b 596 346 596 348 596 351 b 596 405 575 456 541 492 b 506 529 457 553 402 553 b 348 553 298 529 264 492 b 230 456 209 405 209 351 b 209 295 230 245 264 208 b 298 171 348 148 402 148 b 402 148 402 148 402 148 b 435 148 465 156 492 170 b 495 160 500 150 508 140 b 522 119 552 102 584 103 b 593 103 601 104 610 106 b 647 115 671 137 688 154 b 703 171 711 187 713 189 l 713 190 l 713 190 b 739 238 752 293 752 351 b 752 543 596 700 402 700 z m 460 284 b 444 268 425 259 402 259 b 380 259 360 268 345 284 b 329 301 320 324 320 351 b 320 377 329 400 345 417 b 360 432 380 442 402 442 b 425 442 444 432 460 417 b 475 400 485 377 485 351 b 485 324 475 301 460 284 z"},".":{"x_min":0,"x_max":230,"ha":230,"o":"m 82 67 b 82 26 115 -7 156 -7 b 197 -7 231 26 231 67 b 231 108 197 142 156 142 b 115 142 82 108 82 67 z"},"p":{"x_min":0,"x_max":660,"ha":660,"o":"m 146 -188 b 178 -188 203 -162 203 -134 l 203 42 b 239 16 287 1 337 1 b 470 1 579 112 579 249 b 579 386 470 500 337 500 b 286 500 238 483 201 459 b 197 481 174 500 146 500 b 117 500 93 476 93 447 l 93 249 b 93 249 93 249 93 249 b 93 248 93 248 93 248 l 93 -134 b 93 -162 117 -188 146 -188 z m 242 350 b 267 377 300 391 337 391 b 371 391 405 377 431 350 b 454 324 470 288 470 249 b 470 210 454 172 431 149 b 405 121 371 107 337 107 b 300 107 267 121 242 149 b 216 172 203 210 203 249 b 203 288 216 324 242 350 z"},"X":{"x_min":0,"x_max":722,"ha":722,"o":"m 593 681 b 568 700 535 695 516 669 l 348 439 l 179 669 b 162 695 127 700 103 681 b 78 664 73 630 90 605 l 280 347 l 90 87 b 73 63 78 28 103 11 b 112 4 123 0 135 0 b 152 0 168 9 179 23 l 348 254 l 516 23 b 527 9 543 0 561 0 b 572 0 583 4 593 11 b 618 28 622 63 605 87 l 415 347 l 605 605 b 622 630 618 664 593 681 z"},"*":{"x_min":0,"x_max":430,"ha":430,"o":"m 199 414 b 196 393 210 377 230 377 b 250 377 264 394 261 415 l 251 504 l 326 449 b 335 443 342 439 350 439 b 368 439 384 454 384 472 b 384 488 373 499 361 504 l 273 542 l 361 581 b 373 586 384 596 384 612 b 384 630 369 645 351 645 b 342 645 335 642 326 635 l 251 580 l 261 670 b 264 691 250 707 230 707 b 210 707 196 690 199 669 l 209 580 l 134 635 b 125 642 119 645 110 645 b 92 645 76 630 76 612 b 76 597 87 586 99 581 l 187 542 l 99 504 b 88 499 76 488 76 473 b 76 455 91 439 109 439 b 118 439 125 443 134 449 l 209 504 z"},"Y":{"x_min":0,"x_max":604,"ha":604,"o":"m 579 682 b 555 700 521 695 502 670 l 331 436 l 160 670 b 143 695 109 700 84 682 b 59 664 54 630 73 606 l 276 325 l 276 55 b 276 24 302 0 331 0 b 362 0 386 24 386 55 l 386 325 l 591 606 b 608 630 603 664 579 682 z"},"c":{"x_min":0,"x_max":571,"ha":571,"o":"m 312 0 b 312 0 312 0 312 0 b 372 0 428 22 471 53 b 494 73 498 105 482 127 b 462 151 429 155 407 138 b 381 119 348 106 312 106 b 231 106 164 172 164 249 b 164 326 231 393 312 393 b 349 393 381 380 407 361 b 430 343 462 347 482 371 b 498 393 494 427 471 445 b 428 478 372 500 312 500 b 174 499 58 388 58 249 b 58 112 174 0 312 0 z"},"!":{"x_min":0,"x_max":252,"ha":252,"o":"m 148 186 b 178 186 202 210 202 241 l 202 645 b 202 675 178 700 148 700 b 118 700 93 675 93 645 l 93 241 b 93 210 118 186 148 186 z m 202 55 l 202 75 b 202 105 178 130 148 130 b 118 130 93 105 93 75 l 93 55 b 93 24 118 0 148 0 b 178 0 202 24 202 55 z"},"/":{"x_min":0,"x_max":422,"ha":422,"o":"m 115 4 l 115 4 b 121 1 129 0 135 0 l 135 0 b 156 0 177 12 186 33 l 431 617 l 431 617 b 443 644 430 677 403 688 l 403 688 b 374 700 342 687 330 659 l 85 76 l 85 76 b 73 48 86 15 115 4 z"},"[":{"x_min":0,"x_max":430,"ha":430,"o":"m 98 -70 b 98 -103 124 -130 157 -130 l 363 -130 b 389 -130 411 -108 411 -82 b 411 -56 389 -35 363 -35 l 214 -35 l 214 605 l 363 605 b 389 605 411 626 411 652 b 411 678 389 700 363 700 l 157 700 b 124 700 98 673 98 640 z"},"6":{"x_min":0,"x_max":642,"ha":642,"o":"m 308 484 b 274 484 241 477 212 464 b 216 473 220 482 225 490 b 242 520 263 543 288 560 b 314 576 344 587 382 588 b 413 591 437 616 436 646 b 434 677 409 700 378 699 b 321 697 270 680 228 652 b 165 610 124 547 99 481 b 74 415 64 343 64 276 b 64 257 65 238 66 219 b 67 218 67 218 67 217 b 79 95 182 0 308 0 b 442 0 551 108 551 242 b 551 376 442 484 308 484 z m 308 111 b 235 111 177 169 177 242 b 177 314 235 374 308 374 b 381 374 440 314 440 242 b 440 169 381 111 308 111 z"},"r":{"x_min":0,"x_max":439,"ha":439,"o":"m 348 499 b 298 500 255 482 222 460 b 215 455 207 447 201 440 l 201 447 b 201 476 176 499 146 499 b 117 499 93 476 93 447 l 93 53 b 93 24 117 0 146 0 b 176 0 201 24 201 53 l 201 243 b 206 257 218 295 242 327 b 254 346 269 363 288 375 b 305 388 325 394 348 394 b 378 394 401 419 401 447 b 401 476 378 499 348 499 z"},"2":{"x_min":0,"x_max":590,"ha":590,"o":"m 462 111 l 249 111 l 438 282 b 490 329 517 395 517 460 b 517 517 497 576 455 621 b 408 673 342 700 277 700 b 220 700 161 680 116 638 l 85 610 b 62 589 61 555 81 532 b 102 509 136 507 159 528 l 190 556 b 215 578 246 589 277 589 b 312 589 347 576 373 547 b 395 522 406 492 406 460 b 406 424 393 390 364 364 l 68 96 b 46 75 44 41 65 18 b 75 6 91 0 106 0 b 106 0 107 0 107 0 b 108 0 108 0 108 0 l 462 0 b 493 0 517 24 517 55 b 517 86 493 111 462 111 z"},"{":{"x_min":0,"x_max":480,"ha":480,"o":"m 394 -135 b 425 -142 449 -123 449 -94 b 449 -70 433 -57 421 -53 b 324 -23 310 8 310 76 b 310 96 312 129 312 150 b 312 228 275 265 208 287 b 274 308 312 346 312 424 b 312 445 310 478 310 498 b 310 566 324 597 421 627 b 433 631 449 644 449 668 b 449 697 425 716 394 709 b 239 675 198 613 198 516 b 198 501 200 461 200 444 b 200 370 174 338 106 335 b 74 333 55 314 55 287 b 55 260 74 241 106 239 b 174 237 200 204 200 131 b 200 114 198 74 198 59 b 198 -39 239 -101 394 -135 z"},"9":{"x_min":0,"x_max":642,"ha":642,"o":"m 309 216 b 343 216 376 223 405 236 b 401 227 397 218 392 210 b 375 180 354 157 329 140 b 303 124 273 113 235 112 b 204 109 180 84 181 54 b 183 23 208 0 239 1 b 296 3 347 20 389 48 b 452 90 493 153 518 219 b 543 285 553 357 553 424 b 553 443 552 462 551 481 b 550 482 550 482 550 483 b 538 605 435 700 309 700 b 175 700 66 592 66 458 b 66 324 175 216 309 216 z m 309 589 b 382 589 440 531 440 458 b 440 386 382 326 309 326 b 236 326 177 386 177 458 b 177 531 236 589 309 589 z"}," ":{"x_min":0,"x_max":300,"ha":300,"o":""},"I":{"x_min":0,"x_max":305,"ha":305,"o":"m 111 55 l 111 55 b 111 24 135 0 166 0 l 166 0 b 196 0 222 24 222 55 l 222 645 l 222 645 b 222 676 196 700 166 700 l 166 700 b 135 700 111 676 111 645 l 111 55 z"},"H":{"x_min":0,"x_max":709,"ha":709,"o":"m 159 0 b 190 0 215 24 215 55 l 215 295 l 474 295 l 474 55 b 474 24 498 0 529 0 b 560 0 585 24 585 55 l 585 645 b 585 676 560 700 529 700 b 498 700 474 676 474 645 l 474 405 l 215 405 l 215 645 b 215 676 190 700 159 700 b 128 700 104 676 104 645 l 104 55 b 104 24 128 0 159 0 z"},"4":{"x_min":0,"x_max":664,"ha":664,"o":"m 544 241 l 534 241 l 534 645 b 534 646 534 647 534 648 b 534 650 533 651 533 653 b 533 656 533 657 532 659 b 532 660 531 662 531 663 b 530 666 530 667 529 669 b 528 670 527 672 527 673 b 525 676 524 677 523 678 b 522 679 521 681 520 682 b 519 683 518 684 516 686 b 516 687 514 688 513 688 b 513 689 512 689 512 689 b 510 690 509 691 507 692 b 506 693 504 694 502 696 b 501 696 499 697 498 697 b 496 698 493 698 492 699 b 490 699 489 699 487 700 b 486 700 483 700 481 700 b 480 700 480 700 479 700 b 478 700 477 700 477 700 b 475 700 472 700 470 700 b 469 699 467 699 466 699 b 463 698 461 698 460 697 b 458 697 457 696 456 694 b 453 694 452 693 450 692 b 449 691 447 690 446 689 b 445 688 444 687 441 686 b 440 684 439 683 438 682 b 437 681 437 680 436 680 l 66 220 b 47 196 50 162 75 143 b 85 134 97 131 109 131 b 109 131 110 131 110 131 b 110 131 111 131 111 131 l 424 131 l 424 55 b 424 24 448 0 479 0 b 510 0 534 24 534 55 l 534 131 l 544 131 b 575 131 600 155 600 186 b 600 216 575 241 544 241 z m 424 241 l 225 241 l 424 488 l 424 241 z"},"~":{"x_min":0,"x_max":460,"ha":460,"o":"m 154 247 b 166 269 177 279 201 279 b 236 279 289 239 344 239 b 398 239 425 272 446 330 b 449 337 450 347 450 353 b 450 370 433 387 413 387 b 398 387 387 377 381 366 b 369 344 358 335 334 335 b 299 335 246 374 191 374 b 137 374 110 341 89 283 b 86 277 85 266 85 261 b 85 243 102 227 122 227 b 137 227 148 236 154 247 z"},"D":{"x_min":0,"x_max":719,"ha":719,"o":"m 159 0 b 159 0 159 0 159 0 b 159 0 159 0 159 0 l 277 0 b 470 0 626 157 626 351 b 626 543 470 700 277 700 l 159 700 b 159 700 159 700 159 700 b 159 700 159 700 159 700 b 128 700 104 676 104 645 l 104 55 b 104 25 128 0 159 0 z m 215 589 l 277 589 b 409 589 515 482 515 351 b 515 218 409 112 277 111 l 215 111 l 215 589 z"},"^":{"x_min":0,"x_max":500,"ha":500,"o":"m 252 625 l 324 532 b 351 497 367 488 397 488 b 413 488 425 496 425 508 b 425 517 421 527 414 538 l 319 668 b 302 691 285 704 257 704 l 248 704 b 220 704 203 691 187 668 l 92 538 b 84 527 80 517 80 508 b 80 496 92 488 108 488 b 137 488 153 497 180 532 z"},"0":{"x_min":0,"x_max":710,"ha":710,"o":"m 133 111 l 133 111 b 175 48 240 0 319 0 l 319 0 b 396 0 462 48 504 111 l 504 111 b 547 175 571 259 571 350 l 571 350 b 571 442 547 525 504 589 l 504 589 b 462 653 396 700 319 700 l 319 700 b 240 700 175 653 133 589 l 133 589 b 89 525 66 442 65 350 l 65 350 b 66 259 89 175 133 111 z m 412 173 l 412 173 b 383 130 350 111 319 111 l 319 111 b 288 111 254 130 224 173 l 224 173 b 196 215 176 279 176 350 l 176 350 b 176 422 196 485 224 528 l 224 528 b 254 570 288 590 319 589 l 319 589 b 350 590 383 570 412 528 l 412 528 b 440 485 460 422 460 350 l 460 350 b 460 279 440 215 412 173 z"},"F":{"x_min":0,"x_max":605,"ha":605,"o":"m 159 0 b 190 0 215 25 215 55 l 215 295 l 448 295 b 478 295 503 320 503 351 b 503 380 478 406 448 406 l 215 406 l 215 589 l 486 589 b 515 589 541 614 541 645 b 541 675 515 700 486 700 l 162 700 b 160 700 160 700 160 700 b 160 700 159 700 159 700 b 128 700 104 675 104 645 l 104 55 b 104 25 128 0 159 0 z"},"`":{"x_min":0,"x_max":500,"ha":500,"o":"m 318 590 b 336 590 349 598 349 611 b 349 618 344 627 340 633 l 283 721 b 272 739 256 750 235 750 b 203 750 163 730 163 711 b 163 700 170 690 180 681 l 248 617 b 271 595 290 590 318 590 z"},"k":{"x_min":0,"x_max":560,"ha":560,"o":"m 148 0 b 179 0 204 25 204 55 l 204 143 l 259 198 l 406 20 b 416 7 432 0 448 0 b 460 0 473 4 483 13 b 507 32 510 67 491 91 l 337 276 l 487 426 b 509 447 509 482 487 504 b 466 525 430 525 409 504 l 204 299 l 204 645 b 204 675 179 700 148 700 b 117 700 93 675 93 645 l 93 55 b 93 25 117 0 148 0 z"},"u":{"x_min":0,"x_max":613,"ha":613,"o":"m 502 208 l 502 447 b 502 475 476 500 448 500 b 418 500 396 475 396 447 l 396 447 l 396 208 b 395 151 349 106 291 106 b 234 106 189 151 189 208 l 189 447 b 189 475 166 500 136 500 b 107 500 83 475 83 447 l 83 208 b 83 94 177 0 291 0 b 406 0 502 94 502 208 z"},"]":{"x_min":0,"x_max":430,"ha":430,"o":"m 368 640 b 368 673 341 700 308 700 l 102 700 b 76 700 55 678 55 652 b 55 626 76 605 102 605 l 252 605 l 252 -35 l 102 -35 b 76 -35 55 -56 55 -82 b 55 -108 76 -130 102 -130 l 308 -130 b 341 -130 368 -103 368 -70 z"},"U":{"x_min":0,"x_max":814,"ha":814,"o":"m 683 289 l 683 645 b 683 676 659 700 628 700 b 597 700 572 676 572 645 l 572 289 b 572 191 493 111 394 111 b 296 111 216 191 216 289 l 216 645 b 216 676 190 700 160 700 b 129 700 105 676 105 645 l 105 289 b 105 130 233 0 394 0 b 554 0 683 130 683 289 z"},"o":{"x_min":0,"x_max":625,"ha":625,"o":"m 311 -3 b 311 -3 311 -3 311 -3 b 377 -3 437 26 478 73 b 523 117 548 179 548 249 l 548 249 b 548 317 523 376 478 424 b 437 471 377 500 311 500 b 242 500 184 471 139 424 b 96 376 70 317 70 249 b 70 179 96 117 139 73 b 184 26 242 -3 311 -3 z m 215 353 b 240 375 273 391 311 391 b 346 391 378 375 403 353 b 428 326 442 290 442 249 l 442 249 b 442 206 428 171 403 143 b 378 119 346 106 311 106 b 273 106 240 119 215 143 b 192 171 179 206 179 249 b 179 290 192 326 215 353 z"},"N":{"x_min":0,"x_max":771,"ha":771,"o":"m 214 470 l 534 26 b 535 24 537 22 539 20 b 549 8 564 0 580 0 b 610 0 635 25 635 55 l 635 636 b 635 665 610 690 580 690 b 550 690 526 665 526 636 l 526 224 l 203 671 b 186 695 152 700 127 683 b 112 672 104 654 105 637 b 105 636 105 636 105 636 l 105 55 b 105 25 129 0 160 0 b 189 0 214 25 214 55 l 214 470 z"},"+":{"x_min":0,"x_max":620,"ha":620,"o":"m 261 158 b 261 126 286 101 318 101 b 349 101 375 126 375 158 l 375 297 l 517 297 b 547 297 572 321 572 352 b 572 382 547 407 517 407 l 375 407 l 375 546 b 375 578 349 603 318 603 b 286 603 261 578 261 546 l 261 407 l 119 407 b 89 407 64 382 64 352 b 64 321 89 297 119 297 l 261 297 z"},"G":{"x_min":0,"x_max":814,"ha":814,"o":"m 442 0 b 527 0 606 29 669 78 b 679 85 685 93 688 102 b 688 102 688 103 688 103 b 689 105 689 106 690 108 b 691 114 693 118 693 125 l 693 346 b 693 378 667 402 635 402 b 635 402 635 402 634 402 b 634 402 634 402 633 402 l 436 402 b 405 402 379 378 379 346 b 379 315 405 289 436 289 l 579 289 l 579 152 b 539 129 492 114 442 114 b 370 114 307 141 262 187 b 215 232 187 293 187 359 b 187 427 215 488 262 533 b 307 579 370 606 442 606 b 502 606 557 585 600 552 b 625 532 662 537 681 561 b 700 586 696 623 670 642 b 608 691 527 720 442 720 b 239 720 73 560 73 359 b 73 159 239 0 442 0 b 442 0 442 0 442 0 z"},"q":{"x_min":0,"x_max":660,"ha":660,"o":"m 492 -187 b 522 -187 546 -162 546 -134 l 546 249 b 546 249 546 249 546 250 b 546 250 546 250 546 250 l 546 446 b 546 476 522 500 492 500 b 465 500 443 481 439 458 b 400 483 354 500 303 500 b 168 500 60 387 60 250 b 60 112 168 0 303 0 b 353 0 399 16 437 42 l 437 -134 b 437 -162 461 -187 492 -187 z m 396 349 b 422 325 437 288 437 250 b 437 209 422 173 396 149 b 373 121 339 107 303 107 b 268 107 235 121 209 149 b 185 173 168 209 168 250 b 168 288 185 325 209 349 b 235 376 268 392 303 392 b 339 392 373 376 396 349 z"},"d":{"x_min":0,"x_max":660,"ha":660,"o":"m 546 249 b 546 249 546 249 546 249 b 546 250 546 250 546 250 l 546 646 b 546 675 522 700 492 700 b 461 700 437 675 437 646 l 437 458 b 400 484 352 500 303 500 b 168 500 60 386 60 249 b 60 114 168 0 303 0 b 353 0 401 17 439 43 b 444 19 465 0 492 0 b 522 0 546 25 546 54 z m 397 350 b 422 325 437 289 437 249 b 437 211 422 175 397 150 b 372 124 340 109 303 109 b 267 109 234 124 209 150 b 184 175 169 211 169 249 b 169 289 184 325 209 350 b 234 376 267 391 303 391 b 340 391 372 376 397 350 z"},"1":{"x_min":0,"x_max":335,"ha":335,"o":"m 273 648 b 271 650 271 652 271 655 b 271 656 270 658 270 660 b 269 661 269 663 268 665 b 268 667 267 668 266 670 b 266 671 265 672 265 673 b 265 673 264 675 264 675 b 263 676 261 678 260 679 b 259 681 258 682 257 683 b 256 684 255 686 253 687 b 252 688 250 689 249 690 b 247 691 246 692 245 693 b 243 693 242 694 239 696 b 238 697 236 697 235 697 b 233 698 232 699 229 699 b 228 699 226 699 225 700 b 223 700 221 700 218 700 b 218 700 217 700 217 700 b 216 700 215 700 214 700 b 212 700 209 700 207 699 b 206 699 204 699 203 698 b 201 698 199 697 197 697 b 195 696 194 694 192 694 b 191 693 189 693 188 692 l 65 619 b 39 604 30 569 47 544 b 57 526 75 516 94 516 b 103 516 113 518 122 524 l 162 547 l 162 55 b 162 24 186 0 217 0 b 247 0 273 24 273 55 l 273 645 b 273 646 273 647 273 648 z"},"5":{"x_min":0,"x_max":605,"ha":605,"o":"m 259 497 b 237 497 214 494 192 488 l 204 587 l 450 587 b 482 587 507 613 507 643 b 507 675 482 700 450 700 l 155 700 b 145 700 137 698 129 694 b 128 693 127 693 126 692 b 125 691 124 691 122 690 b 109 681 100 667 97 650 l 67 391 b 66 386 66 380 67 374 b 67 373 68 373 68 372 b 68 370 69 368 69 365 b 70 364 71 362 71 360 b 72 360 72 359 72 357 b 76 353 79 348 83 344 b 105 322 141 322 163 344 b 189 371 225 383 259 383 b 294 383 328 371 354 344 b 381 318 394 284 394 248 b 394 214 380 179 354 153 b 328 126 293 113 259 113 b 223 113 189 126 163 153 b 141 175 104 175 83 153 b 60 130 60 94 83 73 b 130 24 195 0 257 0 b 257 0 257 0 259 0 b 322 0 386 24 434 73 b 482 121 507 185 507 248 b 507 312 483 376 434 424 b 386 473 322 497 259 497 z"}}}
